# xmcd
#
# Track frame offsets:
#	150
#	20022
#	38625
#	52030
#
# Disc length: 902 seconds
#
# Revision: 1
# Processed by: cddbd v1.5PL3 Copyright (c) Steve Scherf et al.
# Submitted via: dBpowerAMP V4.0
#
DISCID=2d038404
DTITLE=Andy Pawlak - Mermaids
DYEAR=2001
DGENRE=Pop
TTITLE0=Mermaids
TTITLE1=No Comromise
TTITLE2=Squeeky Clean
TTITLE3=Wintertime
EXTD=
EXTT0=
EXTT1=
EXTT2=
EXTT3=
PLAYORDER=
